<svg xmlns="http://www.w3.org/2000/svg" viewBox="0 0 48 48"><defs><style>.cls-1{fill:#ae0201;}</style></defs><path class="cls-1" d="M23.71,15.61H37.14c5.27,0,8.9,3.66,8.92,9q0,6.7,0,13.42a8.61,8.61,0,0,1-9,9H10.44c-5.68,0-9.29-3.64-9.29-9.31q0-6.53,0-13a8.63,8.63,0,0,1,9-9Zm-.13,5.33c-4.17,0-8.33,0-12.5,0a4.83,4.83,0,0,0-4.92,4.88q-.07,5.45,0,10.9a4.85,4.85,0,0,0,5,5q12.43,0,24.87,0a4.84,4.84,0,0,0,5.11-5.08c.05-3.46.05-6.92,0-10.37S39.11,21,35.81,21C31.73,20.93,27.66,20.94,23.58,20.94Z"/><path class="cls-1" d="M28,9.63c2-2,3.89-3.91,5.76-5.85a1.81,1.81,0,0,0,.37-1.14c0-1.29.66-2.13,1.8-2.2a1.9,1.9,0,0,1,2,1.81c0,1.1-.78,1.85-2,2a2.49,2.49,0,0,0-1.36.58c-1.72,1.65-3.38,3.37-5.09,5a1.16,1.16,0,0,0-.32,1.6A12.62,12.62,0,0,1,30,13.82H17.29l1.07-3.44c-1.93-1.89-4-3.94-6.12-6a1.54,1.54,0,0,0-1-.22c-1.4,0-2.22-.72-2.21-1.89A1.85,1.85,0,0,1,10.9.44c1.18,0,1.83.67,2,2a1.84,1.84,0,0,0,.35,1.06c2,2,4,4,6,6.07C22.14,7.41,25,7.29,28,9.63Z"/></svg>