<svg xmlns="http://www.w3.org/2000/svg" viewBox="0 0 16 16"><defs><style>.cls-1{fill:#ae0201;}</style></defs><path class="cls-1" d="M8,5.31H12.4a2.81,2.81,0,0,1,2.9,3v4.44a2.84,2.84,0,0,1-2.67,3H3.72a2.86,2.86,0,0,1-3-3.08V8.32a2.84,2.84,0,0,1,2.68-3h.25ZM8,7.07H3.93a1.59,1.59,0,0,0-1.6,1.57v0c0,1.2,0,2.4,0,3.61A1.6,1.6,0,0,0,3.86,14H12a1.59,1.59,0,0,0,1.66-1.51v-.17c0-1.14,0-2.29,0-3.43A1.59,1.59,0,0,0,12,7.09C10.64,7.07,9.32,7.07,8,7.07Z"/><path class="cls-1" d="M9.43,3.33c.65-.66,1.26-1.29,1.87-1.94A.61.61,0,0,0,11.42,1c0-.43.21-.71.58-.73a.62.62,0,0,1,.65.59h0a.66.66,0,0,1-.65.66.83.83,0,0,0-.44.19c-.56.55-1.1,1.12-1.65,1.66a.39.39,0,0,0-.11.53,4.11,4.11,0,0,1,.28.79H6L6.3,3.58c-.63-.63-1.3-1.31-2-2A.54.54,0,0,0,4,1.52c-.45,0-.72-.24-.72-.63a.61.61,0,0,1,.61-.6h0c.39,0,.6.22.65.66a.55.55,0,0,0,.12.35c.65.66,1.29,1.33,1.94,2A2.11,2.11,0,0,1,9.43,3.33Z"/></svg>
