<svg width="256" height="256" viewBox="0 0 256 256" fill="none" xmlns="http://www.w3.org/2000/svg">
<g clip-path="url(#clip0_2_2)">
<path d="M176 26L128 74L80 26M20 98C20 91.6348 22.5286 85.5303 27.0294 81.0294C31.5303 76.5286 37.6348 74 44 74H212C218.365 74 224.47 76.5286 228.971 81.0294C233.471 85.5303 236 91.6348 236 98V206C236 212.365 233.471 218.47 228.971 222.971C224.47 227.471 218.365 230 212 230H44C37.6348 230 31.5303 227.471 27.0294 222.971C22.5286 218.47 20 212.365 20 206V98Z" stroke="#D00228" stroke-width="24" stroke-linecap="round" stroke-linejoin="round"/>
</g>
<defs>
<clipPath id="clip0_2_2">
<rect width="256" height="256" fill="white"/>
</clipPath>
</defs>
</svg>
